Enjoy the most hilarious Christmas moments, Saturday Night Live-style, compiled in one place. This hilarious compilation includes these unforgettable moments: Chevy Chase's impersonation of an unstable President Ford putting the star on top of the White House Christmas tree, John Belushi as a drunken shopping mall Santa Claus, a Martha Stewart Topless Christmas Special, and the perennial favorite, Adam Sandler's "Hanukkah Song." Former popular cast members Bill Murray, Jane Curtin, Phil Hartman, Dana Carvey, and Mike Myers all make appearances.

1. Christmas Eve at the White House [2:52]
2. Opening Montage [1:15]
3. Bill Murray Monologue [1:42]
4. Mr. Robinson's Neighborhood [2:44]
5. Delicious Dish [5:44]
6. Church Chat [6:06]
7. Martha Stewart Living [1:42]
8. Hanukah Song [3:39]
9. A Holiday Wish [2:31]
10. Matt Foley: Motivational Santa [5:15]
11. Consumer Probe [4:31]
12. Lost Ending of "It's a Wonderful Life" [3:57]
13. Santa Wrap [2:06]
14. Hanukah Harry [8:31]
15. Deserted Island Christmas [5:27]
16. Winter Wonderland [2:08]
17. Dysfunctional Family Christmas [2:21]
18. Rita From Brooklyn [5:04]
19. Master Thespian [6:08]


Video
ID                                       : 1
Format                                   : AVC
Format/Info                              : Advanced Video Codec
Format profile                           : Main@L3.0
Format settings, CABAC                   : Yes
Format settings, ReFrames                : 4 frames
Codec ID                                 : avc1
Codec ID/Info                            : Advanced Video Coding
Duration                                 : 1h 14mn
Bit rate mode                            : Variable
Bit rate                                 : 1 678 Kbps
Width                                    : 706 pixels
Height                                   : 480 pixels
Display aspect ratio                     : 4:3
Original display aspect ratio            : 4:3
Frame rate mode                          : Constant
Frame rate                               : 29.970 fps
Color space                              : YUV
Chroma subsampling                       : 4:2:0
Bit depth                                : 8 bits
Scan type                                : Progressive
Bits/(Pixel*Frame)                       : 0.165
Stream size                              : 892 MiB (90%)
Writing library                          : x264 core 120


Audio
ID                                       : 2
Format                                   : AC-3
Format/Info                              : Audio Coding 3
Mode extension                           : CM (complete main)
Format settings, Endianness              : Big
Codec ID                                 : ac-3
Duration                                 : 1h 14mn
Bit rate mode                            : Constant
Bit rate                                 : 192 Kbps
Channel(s)                               : 2 channels
Channel positions                        : Front: L R
Sampling rate                            : 48.0 KHz
Bit depth                                : 16 bits
Compression mode                         : Lossy
Delay relative to video                  : 67ms
Stream size                              : 102 MiB (10%)
Language                                 : English
Encoded date                             : UTC 2012-12-23 18:42:00
Tagged date                              : UTC 2012-12-23 20:25:48